<svg width="32" height="32" viewBox="0 0 512 512" xmlns="http://www.w3.org/2000/svg">
  <defs>
    <linearGradient id="bg" x1="0%" y1="0%" x2="100%" y2="100%">
      <stop offset="0%" style="stop-color:#ed7734;stop-opacity:1" />
      <stop offset="100%" style="stop-color:#de5d20;stop-opacity:1" />
    </linearGradient>
  </defs>
  
  <!-- Background -->
  <rect width="512" height="512" rx="80" ry="80" fill="url(#bg)"/>
  
  <!-- JT Monogram -->
  <text x="256" y="320" font-family="system-ui, -apple-system, sans-serif" 
        font-size="240" font-weight="800" text-anchor="middle" fill="white">JT</text>
  
  <!-- QR Code dots pattern -->
  <circle cx="100" cy="100" r="12" fill="rgba(255,255,255,0.3)"/>
  <circle cx="130" cy="100" r="12" fill="rgba(255,255,255,0.3)"/>
  <circle cx="160" cy="100" r="12" fill="rgba(255,255,255,0.3)"/>
  <circle cx="100" cy="130" r="12" fill="rgba(255,255,255,0.3)"/>
  <circle cx="160" cy="130" r="12" fill="rgba(255,255,255,0.3)"/>
  <circle cx="100" cy="160" r="12" fill="rgba(255,255,255,0.3)"/>
  <circle cx="130" cy="160" r="12" fill="rgba(255,255,255,0.3)"/>
  <circle cx="160" cy="160" r="12" fill="rgba(255,255,255,0.3)"/>
  
  <circle cx="412" cy="100" r="12" fill="rgba(255,255,255,0.3)"/>
  <circle cx="382" cy="100" r="12" fill="rgba(255,255,255,0.3)"/>
  <circle cx="352" cy="100" r="12" fill="rgba(255,255,255,0.3)"/>
  <circle cx="412" cy="130" r="12" fill="rgba(255,255,255,0.3)"/>
  <circle cx="352" cy="130" r="12" fill="rgba(255,255,255,0.3)"/>
  <circle cx="412" cy="160" r="12" fill="rgba(255,255,255,0.3)"/>
  <circle cx="382" cy="160" r="12" fill="rgba(255,255,255,0.3)"/>
  <circle cx="352" cy="160" r="12" fill="rgba(255,255,255,0.3)"/>
</svg>